# xmcd
#
# Track frame offsets:
# 150
# 12579
# 23539
# 35935
# 47018
# 58861
# 67874
# 84964
# 104226
# 116476
# 134221
# 153853
# 167011
# 180969
# 196763
#
# Disc length: 2795 seconds
#
#
# Revision: 0
# Processed by: cddbd v1.4PL0 Copyright (c) Steve Scherf et al.
# Submitted via: FreeRIP 2.40 
#
DISCID=c60ae90f
DTITLE=Various Artist - GOOD MORNING  COUNTRY Disc 2 
DYEAR=2002
DGENRE=Country
TTITLE0=I Walk The Line
TTITLE1=King Of The Road
TTITLE2=Behind Closed Doors
TTITLE3=Oh Lonesome Me
TTITLE4=Take This Job and Shove It
TTITLE5=Rawhide
TTITLE6=For The Good Times
TTITLE7=Me and Bobby Mcgee
TTITLE8=Wasted Days and Wasted Nights
TTITLE9=Lookin' For Love
TTITLE10=El Paso
TTITLE11=Ruby Don't Take You're love To Town
TTITLE12=Lady Of The Wind
TTITLE13=My Girl Bill
TTITLE14=Old Man Emu
EXTD=
EXTT0=
EXTT1=Roger Miller
EXTT2=Charlie Rich
EXTT3=Don Gibson
EXTT4=Johnny Paycheck
EXTT5=Frankie Laine
EXTT6=Ray Price
EXTT7=Bobby Bare
EXTT8=Freddy Fender
EXTT9=Johnny lee
EXTT10=Marty Robbins
EXTT11=Kenny Rogers
EXTT12=Lee Conway
EXTT13=Cash Backman
EXTT14=John Williams
PLAYORDER=
